<svg width="101" height="111" viewBox="0 0 101 111" fill="none" xmlns="http://www.w3.org/2000/svg">
<path d="M59.9165 3.56197C61.7065 3.60177 64.6666 3.63756 67.4699 4.62661C72.1618 5.1818 76.145 7.42963 78.6336 11.7535C81.0415 15.2447 82.2085 19.1676 82.995 22.7418L83.1499 23.4602L83.1958 23.6801L83.2133 23.9041C83.3137 25.1817 83.4828 26.3514 83.6651 27.4854C83.8369 28.5545 84.0456 29.7356 84.1773 30.8062C84.5198 33.3875 86.1073 36.1012 88.5427 38.6698C89.201 39.192 89.7878 39.8286 90.1624 40.2462C90.633 40.771 90.8587 41.0452 91.0435 41.2543L91.2228 41.4488L91.2467 41.4738L91.2696 41.4987C99.4822 50.3413 99.1644 63.2628 90.9393 72.2577C90.3533 73.1721 89.6466 73.7982 89.2166 74.174C88.6193 74.6961 88.4236 74.8545 88.233 75.0948L88.026 75.3559L87.774 75.573C85.4788 77.5485 84.5292 79.8801 85.2149 82.9935C85.4653 83.8264 85.7645 85.0435 85.8209 86.2285C86.895 90.669 86.5667 95.8277 83.3406 99.8574C81.148 104.269 76.9078 106.273 72.5794 106.612C68.1495 107.814 63.9445 106.578 61.0144 105.716L60.6845 105.619L60.3794 105.459C59.5598 105.03 58.1582 104.524 56.9978 104.267L56.6323 104.187L56.292 104.03C54.4368 103.177 52.8608 102.866 51.4128 102.931C49.9624 102.996 48.4102 103.449 46.6179 104.46L46.5783 104.483L46.5378 104.503C38.6914 108.669 30.2634 107.772 23.1553 103.13C15.4472 98.8673 11.4682 90.565 13.3346 81.7744C13.6212 80.0505 13.9959 77.5025 14.9888 75.1611C15.363 73.2587 15.1188 71.7567 13.9086 70.3215C12.0217 68.3584 10.7125 66.7324 8.90181 65.1249L8.6604 64.9115L8.46288 64.657C0.400902 54.2959 2.18465 40.0707 13.5732 33.1271C16.7406 30.7716 20.1809 29.4114 22.2858 28.3137L22.3945 28.2565L22.507 28.2082C26.054 26.6639 28.3431 24.503 30.0604 21.097C32.4403 15.3479 36.1105 11.0594 40.8196 8.15231C45.531 5.2438 51.0934 3.8313 57.083 3.50874L57.216 3.50193L59.9165 3.56197Z" fill="#F5BD0F" stroke="black" stroke-width="7"/>
<circle cx="47.3223" cy="33.4082" r="4.5" fill="black"/>
<circle cx="62.3223" cy="33.4082" r="4.5" fill="black"/>
</svg>
